<svg xmlns="http://www.w3.org/2000/svg" viewBox="0 0 64 64" fill="none">
  <defs>
    <linearGradient id="bg" x1="8" y1="6" x2="56" y2="58" gradientUnits="userSpaceOnUse">
      <stop stop-color="#5C2246" />
      <stop offset="0.55" stop-color="#B45E7D" />
      <stop offset="1" stop-color="#F2CFBE" />
    </linearGradient>
    <linearGradient id="hair" x1="19" y1="16" x2="47" y2="47" gradientUnits="userSpaceOnUse">
      <stop stop-color="#FFF6FA" />
      <stop offset="1" stop-color="#F6DCD0" />
    </linearGradient>
  </defs>
  <rect x="4" y="4" width="56" height="56" rx="18" fill="url(#bg)" />
  <path
    d="M19 28.4C19 18.8 25.3 14 32 14C38.7 14 45 18.8 45 28.4V40.5C45 44.8 41.5 48 37.2 48H26.8C22.5 48 19 44.8 19 40.5V28.4Z"
    fill="url(#hair)"
  />
  <path
    d="M24 26.4C24 21.4 27.6 18 32 18C36.4 18 40 21.4 40 26.4V37.4C40 40.5 37.5 43 34.4 43H29.6C26.5 43 24 40.5 24 37.4V26.4Z"
    fill="#DDAA92"
  />
  <path
    d="M21.5 31.5C23.7 28.4 27.6 26 32 26C36.4 26 40.3 28.4 42.5 31.5V24.8C42.5 18.5 37.8 14 32 14C26.2 14 21.5 18.5 21.5 24.8V31.5Z"
    fill="#FFF8FC"
    opacity="0.95"
  />
  <path
    d="M22.2 24.1C24.9 20.4 28.2 18.6 32 18.6C35.8 18.6 39.1 20.4 41.8 24.1"
    stroke="#6E284E"
    stroke-width="2.3"
    stroke-linecap="round"
  />
  <path
    d="M22.7 39.5C24.2 43.7 27.6 46.5 32 46.5C36.4 46.5 39.8 43.7 41.3 39.5"
    stroke="#6E284E"
    stroke-width="2.3"
    stroke-linecap="round"
    opacity="0.55"
  />
  <circle cx="26.5" cy="30.8" r="1.4" fill="#6E284E" />
  <circle cx="37.5" cy="30.8" r="1.4" fill="#6E284E" />
</svg>